<svg width="960" height="640" viewBox="0 0 960 640" fill="none" xmlns="http://www.w3.org/2000/svg">
<path d="M558.262 278.27L538.714 330.952L526.872 302.725C526.872 302.725 531.455 306.375 533.442 309.823C533.442 309.823 547.88 292.505 547.88 274.58C547.88 254.707 533.401 246.556 523.262 244.325C518.517 239.418 507.243 231.875 482.666 231.875C458.09 231.875 443.652 240.31 439.11 258.439L423.171 321.786L407.03 278.23C375.883 194.32 208.916 192.373 181.987 60C145.203 124.037 175.944 179.315 175.944 179.315C156.194 249.354 202.67 304.023 202.67 304.023C191.761 392.88 304.343 448.888 335.044 473.505C368.908 500.677 406.584 566.986 406.584 566.986C406.584 566.986 408.571 542.936 423.171 535.961C423.171 535.961 430.512 477.601 472 466.773C472 466.773 471.797 458.58 479.26 454.809L482.585 399.004L485.911 454.809C493.373 458.58 493.17 466.773 493.17 466.773C534.659 477.601 541.999 535.961 541.999 535.961C556.599 542.936 558.586 566.986 558.586 566.986C558.586 566.986 596.262 500.677 630.126 473.505C660.827 448.888 773.409 392.88 762.5 304.023C762.5 304.023 808.977 249.354 789.226 179.315C789.226 179.315 819.967 124.037 783.183 60C756.254 192.373 589.327 194.32 558.181 278.27H558.262ZM720.728 253.531C776.532 216.058 782.778 188.237 782.778 188.237C797.54 251.747 754.064 301.265 754.064 301.265C764.933 389.514 655.758 442.358 625.016 467.016C594.275 491.674 561.263 546.586 561.263 546.586C558.505 537.38 552.787 532.797 549.745 530.932C546.176 507.531 530.116 470.139 500.47 460.446C499.902 457.648 498.199 453.43 493.738 450.185L482.707 375.158L471.676 450.185C467.215 453.43 465.511 457.648 464.943 460.446C435.297 470.139 419.237 507.572 415.668 530.932C412.627 532.797 406.908 537.38 404.151 546.586C404.151 546.586 371.138 491.714 340.397 467.016C309.656 442.358 200.48 389.514 211.349 301.265C211.349 301.265 167.874 251.747 182.636 188.237C182.636 188.237 188.881 216.058 244.686 253.531C244.686 253.531 142.891 173.799 181.014 83.9684C216.419 195.172 371.868 207.176 399.324 281.19L424.793 349.932L447.261 260.547C450.343 248.34 458.698 240.27 482.747 240.27C512.191 240.27 518.882 252.112 518.882 252.112C518.882 252.112 539.647 253.856 539.647 274.661C539.647 286.341 531.009 298.873 531.009 298.873C521.437 287.923 514.097 293.6 514.097 293.6L539.322 353.623L566.17 281.19C593.626 207.176 749.076 195.172 784.481 83.9684C822.603 173.84 720.849 253.531 720.849 253.531H720.728Z" fill="white"/>
<path d="M528.453 287.556C528.453 287.556 530.441 280.337 530.441 275.511C530.441 259.532 512.637 260.83 512.637 260.83C512.637 256.693 505.742 249.596 482.626 249.596C459.509 249.596 457.197 257.626 456.102 262.006L424.996 385.863L479.868 305.157L541.35 385.863L502.295 289.016C502.295 289.016 518.598 276.281 528.494 287.556H528.453ZM488.141 264.439L475.082 261.56C475.082 261.56 487.208 259.005 501.241 265.534C492.44 273.077 488.141 264.439 488.141 264.439Z" fill="white"/>
<path d="M607.172 543.503C607.172 538.596 603.198 534.662 598.331 534.662C593.465 534.662 589.49 538.637 589.49 543.503C589.49 548.37 593.465 552.344 598.331 552.344C603.198 552.344 607.172 548.37 607.172 543.503ZM591.356 543.503C591.356 539.65 594.479 536.528 598.291 536.528C602.103 536.528 605.266 539.65 605.266 543.503C605.266 547.356 602.144 550.438 598.291 550.438C594.438 550.438 591.356 547.315 591.356 543.503Z" fill="white"/>
<path d="M601.941 548.573L599.954 544.315C601.13 543.909 601.941 542.773 601.941 541.476C601.941 539.813 600.603 538.475 598.94 538.475H594.682V548.573H596.588V544.477H597.967L599.873 548.573H601.982H601.941ZM598.94 542.571H596.588V540.381H598.94C599.548 540.381 600.035 540.867 600.035 541.476C600.035 542.084 599.548 542.571 598.94 542.571Z" fill="white"/>
<path d="M267.235 256.857L231.221 168.486C207.253 152.182 188.679 134.906 181.095 115.926C183.041 179.517 223.759 223.236 267.275 256.857H267.235Z" fill="#C8102E"/>
<path d="M259.692 256.735L269.101 279.811C232.357 258.56 198.656 236.011 188.273 210.137C190.788 291.816 263.058 338.333 314.158 373.535L283.336 297.94C337.924 328.681 392.958 357.921 413.803 389.109C382.129 336.589 337.356 311.931 259.651 256.776L259.692 256.735Z" fill="#C8102E"/>
<path d="M218.853 313.311C221.408 394.625 319.39 430.435 349.685 460.69L328.272 408.048C353.903 423.176 377.263 438.181 393.972 453.471C334.112 370.737 240.996 361.896 218.853 313.311Z" fill="#C8102E"/>
<path d="M734.07 168.445L698.057 256.815C741.573 223.195 782.291 179.435 784.237 115.885C776.653 134.865 758.038 152.101 734.07 168.445Z" fill="#C8102E"/>
<path d="M681.916 297.94L651.094 373.535C702.194 338.292 774.464 291.816 776.979 210.137C766.596 236.052 732.895 258.56 696.151 279.811L705.56 256.735C627.856 311.891 583.123 336.549 551.408 389.068C572.294 357.881 627.288 328.681 681.916 297.899V297.94Z" fill="#C8102E"/>
<path d="M746.399 313.311C724.256 361.896 631.181 370.737 571.28 453.471C588.03 438.181 611.349 423.176 636.98 408.048L615.567 460.69C645.862 430.395 743.844 394.625 746.399 313.311Z" fill="#C8102E"/>
<path d="M475.082 261.6L488.141 264.479C488.141 264.479 492.44 273.118 501.24 265.574C487.249 259.045 475.082 261.6 475.082 261.6Z" fill="#041E42"/>
<path d="M566.049 281.148L539.201 353.58L513.976 293.558C513.976 293.558 521.316 287.88 530.887 298.83C530.887 298.83 539.526 286.258 539.526 274.618C539.526 253.854 518.761 252.069 518.761 252.069C518.761 252.069 512.069 240.227 482.626 240.227C458.577 240.227 450.222 248.298 447.14 260.505L424.672 349.889L399.203 281.148C371.747 207.134 216.297 195.129 180.892 83.9258C142.77 173.797 244.565 253.489 244.565 253.489C188.72 216.015 182.474 188.194 182.474 188.194C167.712 251.704 211.187 301.223 211.187 301.223C200.319 389.472 309.494 442.316 340.235 466.973C370.977 491.631 403.989 546.544 403.989 546.544C406.747 537.337 412.465 532.755 415.507 530.889C419.075 507.489 435.135 470.096 464.782 460.403C465.349 457.605 467.053 453.387 471.514 450.143L482.545 375.115L493.576 450.143C498.037 453.387 499.781 457.605 500.308 460.403C529.954 470.096 546.014 507.529 549.583 530.889C552.625 532.755 558.343 537.337 561.101 546.544C561.101 546.544 594.113 491.672 624.855 466.973C655.596 442.316 764.771 389.472 753.903 301.223C753.903 301.223 797.378 251.704 782.616 188.194C782.616 188.194 776.37 216.015 720.566 253.489C720.566 253.489 822.36 173.756 784.198 83.9258C748.793 195.129 593.343 207.134 565.887 281.148H566.049ZM181.055 115.884C188.638 134.864 207.254 152.1 231.181 168.444L267.195 256.814C223.719 223.194 183.001 179.475 181.055 115.884ZM328.231 408.046L349.644 460.687C319.349 430.392 221.407 394.622 218.812 313.308C240.955 361.894 334.03 370.735 393.931 453.468C377.222 438.179 353.862 423.173 328.231 408.046ZM283.336 297.897L314.158 373.493C263.058 338.25 190.788 291.773 188.273 210.094C198.656 236.009 232.357 258.518 269.101 279.769L259.692 256.693C337.396 311.848 382.129 336.506 413.844 389.026C392.958 357.838 337.964 328.638 283.376 297.857L283.336 297.897ZM479.828 305.157L424.956 385.862L456.062 262.005C457.157 257.625 460.037 249.595 482.586 249.595C505.134 249.595 512.597 256.693 512.597 260.829C512.597 260.829 530.401 259.532 530.401 275.51C530.401 280.377 528.413 287.555 528.413 287.555C518.558 276.281 502.214 289.015 502.214 289.015L541.27 385.862L479.787 305.157H479.828ZM615.567 460.687L636.981 408.046C611.35 423.173 587.99 438.179 571.281 453.468C631.181 370.735 724.256 361.894 746.4 313.308C743.845 394.622 645.862 430.433 615.567 460.687ZM776.938 210.094C774.424 291.773 702.154 338.291 651.054 373.493L681.876 297.897C627.247 328.638 572.254 357.879 551.368 389.066C583.082 336.547 627.815 311.889 705.52 256.733L696.111 279.809C732.854 258.558 766.556 236.009 776.938 210.135V210.094ZM697.976 256.814L733.99 168.444C757.958 152.14 776.573 134.864 784.157 115.884C782.21 179.475 741.493 223.194 697.976 256.814Z" fill="#041E42"/>
</svg>
